<?xml version="1.0" encoding="UTF-8" standalone="no"?>
<!-- Created with Inkscape (http://www.inkscape.org/) -->

<svg
   width="512"
   height="512"
   viewBox="0 0 135.46666 135.46666"
   version="1.1"
   id="svg5"
   xmlns="http://www.w3.org/2000/svg"
   xmlns:svg="http://www.w3.org/2000/svg">
  <defs
     id="defs2" />
  <g
     id="layer1">
    <path
       style="color:#000000;fill:#000000;fill-rule:evenodd;stroke-width:3.78;-inkscape-stroke:none"
       d="M 255.99609,0 C 239.1262,0 222.60943,1.6406666 206.61133,4.7695312 191.6451,7.696585 177.15015,11.935888 163.24219,17.351562 v 55.660157 c 16.55135,-8.395217 34.37258,-14.65005 53.1289,-18.31836 12.80464,-2.504292 26.04276,-3.81641 39.625,-3.816406 113.58874,0 205.12891,91.530367 205.12891,205.119137 0,57.98078 -23.88767,110.17892 -62.34766,147.42774 v 64.91601 C 467.01035,422.29059 512,344.26617 512,255.99609 512,114.91262 397.07955,8.3751312e-7 255.99609,0 Z M 348.7793,494.50195 V 439.04688 C 320.93449,453.14076 289.43563,461.125 255.99609,461.125 142.40735,461.125 50.876953,369.58488 50.876953,255.99609 50.876951,198.0607 74.807208,145.9125 113.24609,108.67773 V 43.537109 C 44.928545,89.570389 -5.9561463e-7,167.65905 0,255.99609 1.2562696e-6,397.07958 114.91264,512 255.99609,512 c 32.71479,0 63.98861,-6.24627 92.78321,-17.49805 z"
       id="path846"
       transform="scale(0.26458332)" />
  </g>
  <g
     id="layer2">
    <path
       style="fill:none;stroke:#000000;stroke-width:13.2292;stroke-miterlimit:4;stroke-dasharray:none"
       d="m 85.665729,126.47099 0,-58.73766 c 0,-9.709647 -8.028559,-17.580872 -17.932399,-17.580872 -9.903841,-1e-6 -17.93249,7.871224 -17.93249,17.580872 l 5.8e-5,7.408364 1e-4,13.493718 -6.7e-5,-80.4333291"
       id="path1190" />
  </g>
</svg>
